# AST/ASF file generated using VICON BodyLanguage
# -----------------------------------------------
:version 1.10
:name VICON
:units
  mass 1.0
  length 0.45
  angle deg
:documentation
   .ast/.asf automatically generated from VICON data using
   VICON BodyBuilder and BodyLanguage model FoxedUp or BRILLIANT.MOD
:root
   order TX TY TZ RX RY RZ
   axis XYZ
   position 0 0 0  
   orientation 0 0 0 
:bonedata
  begin
     id 1 
     name lhipjoint
     direction 0.700308 -0.549349 0.455834 
     length 2.59063 
     axis 0 0 0  XYZ
  end
  begin
     id 2 
     name lfemur
     direction 0.34202 -0.939693 0  
     length 6.31066  
     axis 0 0 20  XYZ
    dof rx ry rz
    limits (-160.0 20.0)
           (-70.0 70.0)
           (-60.0 70.0)
  end
  begin
     id 3 
     name ltibia
     direction 0.34202 -0.939693 0   
     length 7.36093   
     axis 0 0 20   XYZ
    dof rx
    limits (-10.0 170.0)
  end
  begin
     id 4 
     name lfoot
     direction 0.0905332 -0.248738 0.96433   
     length 2.0233   
     axis -90 7.62852e-016 20   XYZ
    dof rx rz
    limits (-45.0 90.0)
           (-70.0 20.0)
  end
  begin
     id 5 
     name ltoes
     direction 1.53573e-011 -4.21855e-011 1   
     length 1.01524   
     axis -90 7.62852e-016 20   XYZ
    dof rx
    limits (-90.0 20.0)
  end
  begin
     id 6 
     name rhipjoint
     direction -0.61416 -0.607328 0.503944   
     length 2.34332  
     axis 0 0 0  XYZ 
  end
  begin
     id 7 
     name rfemur
     direction -0.34202 -0.939693 0   
     length 6.58548   
     axis 0 0 -20   XYZ
    dof rx ry rz
    limits (-160.0 20.0)
           (-70.0 70.0)
           (-70.0 60.0)
  end
  begin
     id 8 
     name rtibia
     direction -0.34202 -0.939693 0   
     length 7.20707   
     axis 0 0 -20   XYZ
    dof rx
    limits (-10.0 170.0)
 end
 begin
     id 9 
     name rfoot
     direction -0.136772 -0.375778 0.916561   
     length 1.92184  
     axis -90 -7.62852e-016 -20   XYZ
    dof rx rz
    limits (-45.0 90.0)
           (-20.0 70.0)
  end
  begin
     id 10 
     name rtoes
     direction -1.53535e-011 -4.21828e-011 1   
     length 0.951089   
     axis -90 -7.62852e-016 -20   XYZ
    dof rx
    limits (-90.0 20.0)
  end
  begin
     id 11 
     name lowerback
     direction -0.0444974 0.988086 -0.147332   
     length 1.9609   
     axis 0 0 0   XYZ
    dof rx ry rz
    limits (-20.0 45.0)
           (-30.0 30.0)
           (-30.0 30.0)
  end
  begin
     id 12 
     name upperback
     direction 0.00613146 0.999513 0.0306081   
     length 1.94944   
     axis 0 0 0   XYZ
    dof rx ry rz
    limits (-20.0 45.0)
           (-30.0 30.0)
           (-30.0 30.0)
  end
  begin
     id 13 
     name thorax
     direction 0.0254621 0.994518 0.101418   
     length 2.0119   
     axis 0 0 0   XYZ
    dof rx ry rz
    limits (-20.0 45.0)
           (-30.0 30.0)
           (-30.0 30.0)
  end
  begin
     id 14 
     name lowerneck
     direction 0.0168698 0.977854 0.208608   
     length 1.6375   
     axis 0 0 0   XYZ
    dof rx ry rz
    limits (-20.0 45.0)
           (-30.0 30.0)
           (-30.0 30.0)
  end
  begin
     id 15 
     name upperneck
     direction -0.0283988 0.989338 -0.142843   
     length 1.6851   
     axis 0 0 0   XYZ
    dof rx ry rz
    limits (-20.0 45.0)
           (-30.0 30.0)
           (-30.0 30.0)
  end
  begin
     id 16
     name head
     direction -0.0129422 0.99741 -0.0707489  
     length 1.69029  
     axis 0 0 0   XYZ
    dof rx ry rz
    limits (-20.0 45.0)
           (-30.0 30.0)
           (-30.0 30.0)
  end
  begin
     id 17 
     name lclavicle
     direction 0.820295 0.564628 -0.0911715  
     length 3.16484  
     axis 0 0 0   XYZ
    dof ry rz
    limits (-20.0 10.0)
           (0.0 20.0)
  end
  begin
     id 18 
     name lhumerus
     direction 1 -4.48969e-011 1.00186e-027   
     length 5.17853   
     axis 180 -30 -90   XYZ
    dof rx ry rz
    limits (-60.0 90.0)
           (-90.0 90.0)
           (-90.0 90.0)
  end
  begin
     id 19
     name lradius
     direction 1 -4.48966e-011 -1.52922e-027   
     length 3.40399   
     axis 180 -30 -90   XYZ
    dof rx
    limits (-10.0 170.0)
  end
  begin
     id 20
     name lwrist
     direction 1 -4.48981e-011 -3.80893e-027   
     length 1.70199   
     axis 1.1049e-015 90 90   XYZ
    dof ry
    limits (-180.0 0.0)
 end
  begin
     id 21 
     name lhand
     direction 1 -4.48957e-011 -7.61786e-027   
     length 0.708964   
     axis 4.86085e-015 90 90   XYZ
    dof rx rz
    limits (-90.0 90.0)
           (-45.0 45.0)
  end
  begin
     id 22 
     name lfingers
     direction 1 -4.48929e-011 -1.52357e-026   
     length 0.571585   
     axis 9.7217e-015 90 90   XYZ
    dof rx
    limits (0.0 90.0)
  end
  begin
     id 23
     name lthumb
     direction 0.707107 -6.34905e-011 0.707107   
     length 0.820685   
     axis -90 45 2.85299e-015   XYZ
    dof rx rz
    limits (-45.0 45.0)
           (-45.0 45.0)
  end
  begin
     id 24 
     name rclavicle
     direction -0.858602 0.463947 -0.218075   
     length 3.35137  
     axis 0 0 0   XYZ 
    dof ry rz
    limits (-10.0 20.0)
           (-20.0 0.0)
  end
  begin
     id 25 
     name rhumerus
     direction -1 -4.48969e-011 -1.98511e-027  
     length 5.42351   
     axis 180 30 90   XYZ
    dof rx ry rz
    limits (-90.0 60.0)
           (-90.0 90.0)
           (-90.0 90.0)
  end
  begin
     id 26 
     name rradius
     direction -1 -4.48961e-011 -2.82624e-027   
     length 3.42066   
     axis 180 30 90   XYZ
    dof rx
    limits (-10.0 170.0)
  end
  begin
     id 27 
     name rwrist
     direction -1 -4.48966e-011 -3.80893e-027   
     length 1.71033   
     axis 1.1049e-015 -90 -90   XYZ
    dof ry
    limits (-180.0 0.0)
  end
  begin
     id 28
     name rhand
     direction -1 -4.48964e-011 -7.61786e-027   
     length 0.743608   
     axis 4.86085e-015 -90 -90   XYZ
    dof rx rz
    limits (-90.0 90.0)
           (-45.0 45.0)
  end
  begin
     id 29
     name rfingers
     direction -1 -4.48961e-011 -1.52357e-026   
     length 0.599516   
     axis 9.7217e-015 -90 -90   XYZ
    dof rx
    limits (0.0 90.0)
  end
  begin
     id 30
     name rthumb
     direction -0.707107 -6.34913e-011 0.707107   
     length 0.860789   
     axis -90 -45 -2.85299e-015   XYZ
    dof rx rz
    limits (-45.0 45.0)
           (-45.0 45.0)
  end
:hierarchy
  begin
    root lhipjoint rhipjoint lowerback
    lhipjoint lfemur
    lfemur ltibia
    ltibia lfoot
    lfoot ltoes
    rhipjoint rfemur
    rfemur rtibia
    rtibia rfoot
    rfoot rtoes
    lowerback upperback
    upperback thorax
    thorax lowerneck lclavicle rclavicle
    lowerneck upperneck
    upperneck head
    lclavicle lhumerus
    lhumerus lradius
    lradius lwrist
    lwrist lhand lthumb
    lhand lfingers
    rclavicle rhumerus
    rhumerus rradius
    rradius rwrist
    rwrist rhand rthumb
    rhand rfingers
  end

#!OML:ASF E:\mmandel\Project 1\Capture day 1\Session 2\Subject.ASF
:FULLY-SPECIFIED
:DEGREES
2338
root 10.1161 15.0505 2.20906 825.433 81.3495 806.739
lowerback 16.0715 1.18594 -0.182804
upperback 2.30336 1.65635 0.193701
thorax -6.56052 0.858806 -0.0499656
lowerneck -16.592 1.00507 3.38779
upperneck 9.16281 2.02419 -10.0746
head 5.6301 0.386584 -3.56093
rclavicle -6.36111e-015 -2.70347e-014
rhumerus -8.42663 0.204319 -65.5941
rradius 52.6344
rwrist -19.704
rhand -12.1359 27.0039
rfingers 7.12502
rthumb 13.9261 -2.50972
lclavicle -6.36111e-015 -2.70347e-014
lhumerus -32.0961 -4.88752 73.7479
lradius 58.4546
lwrist 28.79
lhand -14.8118 -33.0242
lfingers 7.12502
lthumb 11.3462 -3.3511
rfemur -51.0444 -12.3727 9.97242
rtibia 65.9865
rfoot -32.9889 -9.27513
rtoes -10.3031
lfemur -39.6329 16.1599 -10.2469
ltibia 39.1412
lfoot -5.93317 -4.75562
ltoes -19.7985
2339
root 10.1172 15.062 2.18196 825.796 81.4732 807.126
lowerback 16.1291 1.19986 -0.0548344
upperback 2.27059 1.69631 0.198429
thorax -6.62378 0.874582 -0.12776
lowerneck -16.5617 1.06484 3.69996
upperneck 9.17504 2.0521 -10.2084
head 5.63532 0.401501 -3.65316
rclavicle -1.03368e-014 -7.95139e-015
rhumerus -8.48567 0.0643535 -65.5839
rradius 52.3245
rwrist -19.6362
rhand -12.261 27.2277
rfingers 7.12502
rthumb 13.8055 -2.29418
lclavicle -1.03368e-014 -7.95139e-015
lhumerus -31.8217 -5.14719 73.7071
lradius 58.4986
lwrist 28.7852
lhand -14.9402 -32.9709
lfingers 7.12502
lthumb 11.2225 -3.29111
rfemur -50.9125 -12.3545 9.97049
rtibia 65.9218
rfoot -32.9754 -9.20366
rtoes -10.16
lfemur -39.5722 16.1862 -10.2433
ltibia 39.087
lfoot -6.30718 -5.03458
ltoes -20.052
2340
root 10.1189 15.0639 2.15671 826.121 81.4796 807.478
lowerback 16.142 1.22785 -0.169642
upperback 2.29435 1.71575 0.219266
thorax -6.60939 0.887519 -0.0448056
lowerneck -16.5609 1.12155 3.77202
upperneck 9.15465 2.07828 -10.0095
head 5.62772 0.429913 -3.59829
rclavicle 1.03368e-014 4.13472e-014
rhumerus -8.40403 -0.114704 -65.5727
rradius 51.9579
rwrist -19.5569
rhand -12.1892 27.1952
rfingers 7.12502
rthumb 13.8747 -2.32201
lclavicle 1.03368e-014 4.13472e-014
lhumerus -31.5528 -5.36439 73.669
lradius 58.5901
lwrist 28.8226
lhand -14.9373 -33.0348
lfingers 7.12502
lthumb 11.2252 -3.35507
rfemur -50.8452 -12.3434 9.85083
rtibia 65.9397
rfoot -32.9966 -9.17338
rtoes -10.2432
lfemur -39.5676 16.1438 -10.3604
ltibia 39.1176
lfoot -7.05662 -5.17455
ltoes -22.3953
2341
root 10.1187 15.0507 2.12499 826.402 81.4645 807.745
lowerback 16.1658 1.22688 -0.311818
upperback 2.30983 1.69356 0.258799
thorax -6.61104 0.880996 0.0820781
lowerneck -16.6604 1.18721 3.89284
upperneck 9.1385 2.13433 -10.0034
head 5.64403 0.459158 -3.6113
rclavicle -1.51076e-014 -2.06736e-014
rhumerus -8.44677 -0.281212 -65.5776
rradius 51.8571
rwrist -19.3703
rhand -12.0902 27.0418
rfingers 7.12502
rthumb 13.97 -2.46888
lclavicle -1.51076e-014 -2.06736e-014
lhumerus -31.3249 -5.46994 73.6416
lradius 58.7272
lwrist 28.8467
lhand -14.845 -33.3062
lfingers 7.12502
lthumb 11.3142 -3.63138
rfemur -50.9215 -12.3976 9.71468
rtibia 66.0251
rfoot -32.9414 -9.28994
rtoes -10.8287
lfemur -39.6915 16.0897 -10.5387
ltibia 39.2644
lfoot -7.68365 -5.0094
ltoes -24.3466
2342
root 10.1138 15.0363 2.09132 826.54 81.5185 807.789
lowerback 16.2239 1.21017 -0.440501
upperback 2.23259 1.65103 0.317129
thorax -6.73065 0.863072 0.223786
lowerneck -16.5195 1.32927 4.02393
upperneck 9.078 2.29179 -10.0023
head 5.61448 0.544783 -3.61594
rclavicle 6.36111e-015 3.33958e-014
rhumerus -8.57917 -0.285906 -65.6455
rradius 51.8127
rwrist -19.171
rhand -12.2058 26.9015
rfingers 7.12502
rthumb 13.8587 -2.61682
lclavicle 6.36111e-015 3.33958e-014
lhumerus -31.2505 -5.47909 73.6132
lradius 58.9559
lwrist 28.7546
lhand -14.8995 -33.4436
lfingers 7.12502
lthumb 11.2617 -3.76592
rfemur -51.1005 -12.3772 9.64004
rtibia 66.0913
rfoot -32.8787 -9.41991
rtoes -11.3618
lfemur -39.9901 16.1935 -10.7195
ltibia 39.5058
lfoot -8.01546 -4.91691
ltoes -23.9672
2343
root 10.1114 15.0303 2.05839 826.575 81.5921 807.713
lowerback 16.3402 1.23507 -0.547482
upperback 2.07382 1.66274 0.359724
thorax -6.96919 0.869874 0.322564
lowerneck -16.3146 1.37173 4.07738
upperneck 9.09382 2.32504 -9.90209
head 5.58656 0.573856 -3.58862
rclavicle -1.98785e-014 1.11319e-014
rhumerus -8.67114 -0.315537 -65.6826
rradius 51.5119
rwrist -18.9683
rhand -12.2254 26.9555
rfingers 7.12502
rthumb 13.8398 -2.56407
lclavicle -1.98785e-014 1.11319e-014
lhumerus -31.2982 -5.65791 73.6075
lradius 59.2624
lwrist 28.815
lhand -14.9871 -33.2055
lfingers 7.12502
lthumb 11.1772 -3.52323
rfemur -51.2317 -12.3515 9.56782
rtibia 66.1019
rfoot -32.8411 -9.37713
rtoes -11.4738
lfemur -40.296 16.3528 -10.9161
ltibia 39.7961
lfoot -8.33528 -4.93669
ltoes -22.9511
2344
root 10.113 15.0327 2.0217 826.657 81.7054 807.783
lowerback 16.5682 1.26985 -0.525248
upperback 1.94181 1.71194 0.406063
thorax -7.23789 0.892237 0.341646
lowerneck -16.4767 1.35636 3.98002
upperneck 9.32884 2.31481 -9.72691
head 5.68231 0.568002 -3.5204
rclavicle 7.95139e-015 6.04305e-014
rhumerus -8.69131 -0.473521 -65.6506
rradius 51.0126
rwrist -18.761
rhand -12.1542 27.1625
rfingers 7.12502
rthumb 13.9084 -2.35238
lclavicle 7.95139e-015 6.04305e-014
lhumerus -31.2639 -5.94145 73.6422
lradius 59.5297
lwrist 28.998
lhand -14.9669 -32.9632
lfingers 7.12502
lthumb 11.1967 -3.28197
rfemur -51.1895 -12.4133 9.53503
rtibia 66.0447
rfoot -32.779 -9.31774
rtoes -11.6009
lfemur -40.463 16.4851 -11.057
ltibia 40.0979
lfoot -8.4838 -4.88087
ltoes -21.7055
2345
root 10.1123 15.0283 1.98159 826.834 81.7869 807.968
lowerback 16.5968 1.28594 -0.507797
upperback 1.96204 1.74075 0.452962
thorax -7.23326 0.906696 0.374903
lowerneck -16.5297 1.37852 3.85411
upperneck 9.26543 2.33807 -9.52772
head 5.66814 0.588694 -3.43266
rclavicle 1.59028e-015 -1.59028e-015
rhumerus -8.72155 -0.669722 -65.5875
rradius 50.6798
rwrist -18.6012
rhand -12.2063 27.4014
rfingers 7.12502
rthumb 13.8582 -2.11689
lclavicle 1.59028e-015 -1.59028e-015
lhumerus -30.9441 -6.17063 73.6759
lradius 59.7078
lwrist 29.1101
lhand -14.9373 -32.992
lfingers 7.12502
lthumb 11.2252 -3.31236
rfemur -51.1434 -12.4842 9.45295
rtibia 66.0047
rfoot -32.7828 -9.29557
rtoes -11.8063
lfemur -40.6408 16.5846 -11.2188
ltibia 40.3942
lfoot -8.46973 -4.78676
ltoes -19.3407
2346
root 10.1095 15.0177 1.94162 827.271 81.8826 808.354
lowerback 16.3618 1.26846 -0.485288
upperback 2.07662 1.72798 0.490784
thorax -6.98129 0.901682 0.412056
lowerneck -16.346 1.40919 3.89924
upperneck 8.87419 2.33164 -9.45046
head 5.51359 0.605148 -3.41122
rclavicle -2.54444e-014 -4.77083e-014
rhumerus -8.59972 -0.898984 -65.6053
rradius 50.3418
rwrist -18.3792
rhand -12.1616 27.7814
rfingers 7.12502
rthumb 13.9012 -1.73396
lclavicle -2.54444e-014 -4.77083e-014
lhumerus -30.4788 -6.30532 73.6213
lradius 59.8172
lwrist 29.1298
lhand -14.9031 -33.1178
lfingers 7.12502
lthumb 11.2582 -3.43992
rfemur -51.1995 -12.506 9.38161
rtibia 66.0019
rfoot -32.7815 -9.33624
rtoes -11.9865
lfemur -40.9175 16.6585 -11.3764
ltibia 40.6877
lfoot -8.70409 -4.67753
ltoes -17.6613
2347
root 10.1086 15.0159 1.90147 827.694 82.0517 808.753
lowerback 16.2099 1.24118 -0.412202
upperback 2.16346 1.71083 0.535094
thorax -6.80382 0.893091 0.426014
lowerneck -16.432 1.45113 3.92283
upperneck 8.80773 2.34889 -9.26813
head 5.505 0.62553 -3.35465
rclavicle -2.8625e-014 -3.18055e-014
rhumerus -8.35316 -1.22165 -65.7383
rradius 49.8191
rwrist -17.9765
rhand -12.0099 28.2066
rfingers 7.12502
rthumb 14.0475 -1.2987
lclavicle -2.8625e-014 -3.18055e-014
lhumerus -30.0575 -6.4908 73.51
lradius 59.9503
lwrist 29.2653
lhand -14.8858 -33.1439
lfingers 7.12502
lthumb 11.2749 -3.46691
rfemur -51.2021 -12.5095 9.39478
rtibia 65.9657
rfoot -32.6972 -9.38822
rtoes -12.0805
lfemur -41.1507 16.8009 -11.4891
ltibia 40.9812
lfoot -9.18285 -4.47643
ltoes -18.1444
2348
root 10.1099 15.0158 1.85689 827.71 82.1726 808.853
lowerback 16.283 1.26081 -0.379272
upperback 2.22163 1.74698 0.564147
thorax -6.78202 0.91116 0.429443
lowerneck -16.701 1.52914 4.09748
upperneck 8.98842 2.42152 -9.27538
head 5.6128 0.655624 -3.3814
rclavicle 9.54166e-015 -1.59028e-015
rhumerus -8.33607 -1.5573 -65.802
rradius 49.5196
rwrist -17.6397
rhand -11.9232 28.2299
rfingers 7.12502
rthumb 14.131 -1.26961
lclavicle 9.54166e-015 -1.59028e-015
lhumerus -29.7053 -6.89617 73.4474
lradius 60.1317
lwrist 29.5195
lhand -14.9074 -33.1839
lfingers 7.12502
lthumb 11.2541 -3.50578
rfemur -51.0661 -12.562 9.33533
rtibia 65.921
rfoot -32.5899 -9.43579
rtoes -12.4551
lfemur -41.2057 16.9491 -11.6441
ltibia 41.2509
lfoot -9.67399 -4.29552
ltoes -19.2031
2349
root 10.1114 15.0083 1.81091 827.895 82.2583 809.16
lowerback 16.4713 1.29103 -0.379581
upperback 2.24836 1.79262 0.615409
thorax -6.85897 0.934739 0.470179
lowerneck -16.8353 1.61409 4.1865
upperneck 9.08874 2.5211 -9.28772
head 5.67465 0.700834 -3.39163
rclavicle 7.15625e-015 -7.63333e-014
rhumerus -8.36825 -1.73683 -65.7304
rradius 49.2174
rwrist -17.5932
rhand -11.9513 27.9296
rfingers 7.12502
rthumb 14.1039 -1.5718
lclavicle 7.15625e-015 -7.63333e-014
lhumerus -29.3802 -7.19272 73.4695
lradius 60.2258
lwrist 29.4932
lhand -14.8738 -33.1535
lfingers 7.12502
lthumb 11.2864 -3.47718
rfemur -50.8834 -12.6579 9.24345
rtibia 65.8606
rfoot -32.479 -9.59028
rtoes -13.3589
lfemur -41.205 16.9934 -11.7815
ltibia 41.491
lfoot -10.2798 -4.13037
ltoes -20.6911
2350
root 10.1105 15.0007 1.76664 828.237 82.3473 809.517
lowerback 16.5869 1.29555 -0.425018
upperback 2.21026 1.79489 0.677949
thorax -6.96674 0.937591 0.55894
lowerneck -16.7406 1.63516 4.10102
upperneck 9.09805 2.53543 -9.04871
head 5.65752 0.723177 -3.29908
rclavicle 1.90833e-014 1.11319e-014
rhumerus -8.31036 -1.82747 -65.7042
rradius 48.7134
rwrist -17.5741
rhand -12.052 27.6678
rfingers 7.12502
rthumb 14.0069 -1.8403
lclavicle 1.90833e-014 1.11319e-014
lhumerus -29.051 -7.3198 73.4787
lradius 60.2062
lwrist 29.2982
lhand -14.9286 -33.1028
lfingers 7.12502
lthumb 11.2336 -3.42361
rfemur -50.8335 -12.7345 9.18461
rtibia 65.778
rfoot -32.3355 -9.73064
rtoes -13.9496
lfemur -41.3591 17.0884 -11.9569
ltibia 41.7131
lfoot -10.8258 -4.05764
ltoes -20.579
2351
root 10.1079 14.9977 1.71736 827.867 82.4009 809.078
lowerback 16.6009 1.31908 -0.513032
upperback 2.14353 1.80872 0.690342
thorax -7.0494 0.945824 0.617848
lowerneck -16.5247 1.66401 4.0206
upperneck 9.09382 2.55422 -8.76912
head 5.61572 0.753483 -3.19374
rclavicle 1.11319e-014 4.77083e-015
rhumerus -8.387 -2.01702 -65.7917
rradius 48.3872
rwrist -17.3925
rhand -12.0397 27.5875
rfingers 7.12502
rthumb 14.0187 -1.91978
lclavicle 1.11319e-014 4.77083e-015
lhumerus -28.7594 -7.54769 73.4351
lradius 60.2152
lwrist 29.2726
lhand -14.9806 -33.1931
lfingers 7.12502
lthumb 11.1835 -3.51116
rfemur -50.8856 -12.7738 9.04547
rtibia 65.6951
rfoot -32.1763 -9.70281
rtoes -14.1314
lfemur -41.5737 17.2474 -12.2548
ltibia 41.913
lfoot -11.2515 -3.97787
ltoes -19.2458
